<?xml version="1.0" standalone="no"?>
<!DOCTYPE svg PUBLIC "-//W3C//DTD SVG 20010904//EN"
 "http://www.w3.org/TR/2001/REC-SVG-20010904/DTD/svg10.dtd">
<svg version="1.0" xmlns="http://www.w3.org/2000/svg"
 width="2000.000000pt" height="2000.000000pt" viewBox="0 0 2000.000000 2000.000000"
 preserveAspectRatio="xMidYMid meet">
<metadata>
Created by potrace 1.11, written by Peter Selinger 2001-2013
</metadata>
<g transform="translate(0.000000,2000.000000) scale(0.100000,-0.100000)"
fill="#000000" stroke="none">
<path d="M9649 19646 c-2 -3 -54 -7 -114 -11 -115 -6 -152 -9 -300 -21 -49 -4
-100 -7 -112 -8 -13 0 -23 -3 -23 -8 0 -4 -11 -3 -24 2 -13 5 -27 6 -30 3 -3
-3 -16 -7 -28 -8 -13 -2 -44 -5 -68 -8 -25 -4 -72 -9 -105 -13 -33 -3 -67 -7
-75 -9 -8 -1 -40 -6 -70 -10 -30 -4 -64 -9 -75 -11 -11 -3 -39 -7 -61 -10 -41
-5 -64 -9 -114 -19 -14 -3 -42 -7 -63 -10 -21 -2 -41 -6 -45 -9 -5 -3 -27 -6
-50 -7 -23 -2 -42 -6 -42 -11 0 -4 -13 -6 -30 -4 -16 2 -30 0 -30 -3 0 -4 -10
-7 -22 -8 -13 -1 -34 -4 -48 -8 -14 -3 -38 -8 -55 -10 -16 -2 -31 -5 -32 -6
-2 -1 -6 -2 -10 -3 -5 -1 -14 -5 -20 -9 -7 -5 -13 -6 -13 -4 0 3 -19 0 -42 -5
-24 -5 -54 -12 -68 -15 -43 -9 -55 -11 -57 -13 -2 -2 -7 -4 -13 -5 -5 -1 -11
-3 -12 -4 -3 -3 -67 -13 -85 -14 -7 0 -13 -4 -13 -9 0 -4 -3 -7 -7 -6 -16 3
-103 -14 -103 -21 0 -4 -12 -8 -27 -9 -16 -1 -39 -6 -53 -12 -14 -5 -36 -12
-50 -14 -14 -3 -25 -5 -25 -6 0 -1 -8 -3 -17 -6 -10 -2 -26 -6 -35 -8 -10 -3
-20 -5 -23 -7 -3 -1 -9 -3 -15 -4 -5 -1 -22 -7 -38 -13 -15 -7 -38 -14 -50
-16 -12 -2 -34 -9 -48 -14 -15 -6 -30 -8 -33 -5 -3 4 -6 0 -6 -7 0 -7 -3 -11
-6 -8 -3 4 -37 -4 -75 -17 -38 -13 -69 -21 -69 -17 0 4 -4 3 -8 -3 -4 -5 -61
-28 -127 -50 -66 -22 -131 -45 -145 -52 -14 -7 -30 -13 -36 -13 -11 0 -85 -28
-149 -56 -16 -7 -33 -13 -38 -13 -4 0 -20 -7 -36 -15 -16 -9 -31 -12 -35 -9
-3 4 -6 1 -6 -5 0 -7 -3 -11 -7 -10 -5 1 -19 -3 -33 -9 -14 -6 -54 -23 -90
-38 -96 -41 -114 -48 -120 -50 -11 -4 -111 -50 -200 -93 -52 -25 -99 -44 -104
-43 -5 1 -12 -2 -15 -6 -3 -5 -60 -35 -126 -68 -66 -32 -123 -64 -127 -69 -4
-6 -8 -8 -8 -4 0 4 -22 -6 -50 -22 -27 -16 -50 -26 -50 -22 0 4 -4 3 -8 -3 -9
-13 -78 -53 -114 -66 -16 -6 -28 -15 -28 -21 0 -5 -4 -7 -9 -4 -4 3 -23 -6
-41 -19 -19 -14 -38 -25 -43 -25 -5 0 -21 -9 -37 -20 -15 -11 -30 -17 -34 -13
-3 3 -6 1 -6 -5 0 -6 -24 -24 -52 -38 -29 -15 -54 -30 -56 -35 -2 -5 -7 -9
-12 -9 -11 0 -114 -63 -118 -72 -2 -5 -10 -8 -17 -8 -8 0 -20 -6 -27 -13 -7
-7 -44 -32 -83 -56 -38 -24 -71 -48 -73 -53 -2 -4 -10 -8 -17 -8 -7 0 -26 -10
-42 -23 -15 -13 -36 -26 -45 -30 -10 -3 -18 -11 -18 -17 0 -5 -6 -10 -13 -10
-7 0 -22 -8 -33 -19 -11 -10 -31 -24 -44 -31 -25 -13 -39 -24 -71 -52 -10 -10
-22 -18 -25 -18 -7 0 -131 -89 -155 -112 -11 -10 -23 -18 -28 -18 -5 0 -11 -3
-13 -7 -1 -5 -30 -28 -63 -52 -33 -25 -62 -47 -65 -50 -3 -4 -23 -19 -45 -36
-22 -16 -45 -34 -51 -40 -7 -5 -29 -23 -49 -40 -21 -16 -44 -36 -51 -42 -7 -7
-15 -13 -17 -13 -3 0 -18 -13 -35 -28 -16 -16 -44 -39 -62 -53 -17 -13 -46
-37 -64 -54 -18 -16 -63 -57 -101 -90 -67 -59 -129 -115 -205 -185 -33 -31
-43 -60 -21 -60 13 0 206 -112 209 -122 2 -4 7 -6 12 -3 5 3 14 -1 22 -8 7 -7
15 -13 18 -13 3 0 25 -12 50 -26 25 -15 57 -32 72 -39 16 -7 28 -16 28 -21 0
-4 9 -8 20 -8 11 0 20 -4 20 -10 0 -5 7 -10 15 -10 8 0 15 -4 15 -10 0 -5 9
-10 20 -10 11 0 20 -4 20 -8 0 -8 64 -42 76 -41 4 0 10 -3 13 -8 5 -7 211
-127 306 -179 29 -15 112 -62 170 -96 28 -16 61 -34 75 -41 14 -6 27 -14 30
-18 3 -3 39 -24 80 -46 41 -22 110 -61 152 -86 43 -25 78 -43 78 -39 0 4 4 3
8 -3 8 -12 52 -38 102 -63 19 -9 37 -20 40 -23 3 -3 34 -22 70 -41 36 -20 89
-50 118 -67 29 -17 57 -31 61 -31 5 0 14 -7 21 -15 7 -9 15 -13 18 -10 3 3 12
-1 21 -9 9 -8 40 -27 69 -43 100 -52 107 -56 120 -70 8 -7 17 -11 22 -8 5 3
12 0 15 -5 4 -6 17 -16 28 -21 12 -5 40 -21 62 -34 22 -14 47 -28 55 -32 8 -3
23 -13 33 -21 9 -8 17 -11 17 -6 0 5 4 5 8 -1 4 -5 27 -21 52 -34 25 -13 53
-31 64 -40 10 -9 19 -14 20 -12 0 3 33 -14 71 -36 39 -22 95 -54 125 -69 30
-16 57 -32 60 -35 3 -3 41 -25 85 -49 44 -24 82 -47 83 -52 2 -4 7 -6 12 -3 5
3 14 -1 22 -8 7 -7 42 -29 78 -48 113 -61 135 -74 140 -80 3 -3 21 -13 40 -22
19 -10 42 -22 50 -27 38 -24 136 -78 143 -79 4 0 15 -7 24 -16 14 -15 19 -13
56 22 53 49 57 53 96 83 18 14 46 37 62 53 17 15 32 27 36 27 3 0 27 16 53 35
26 19 52 35 58 35 5 0 15 7 22 15 7 9 32 25 54 36 23 10 57 28 76 39 19 11 40
20 47 20 7 0 13 3 13 8 0 4 39 23 88 42 48 19 90 39 94 45 4 5 8 7 8 2 0 -4
15 -1 33 6 25 11 90 29 150 43 4 1 9 3 12 4 6 3 9 4 55 13 19 4 46 10 60 13
14 3 34 6 45 8 11 2 38 6 60 9 99 15 149 19 280 18 126 0 203 -4 275 -16 14
-2 45 -7 69 -10 23 -3 47 -7 51 -10 4 -3 23 -7 41 -10 19 -2 51 -9 71 -14 20
-5 39 -6 42 -3 4 3 6 0 6 -6 0 -7 3 -11 8 -10 6 1 41 -8 102 -27 11 -4 48 -18
110 -43 36 -15 66 -26 67 -25 3 2 200 -104 251 -135 85 -54 238 -171 301 -231
35 -33 67 -61 72 -61 4 0 11 -9 14 -20 3 -11 13 -20 21 -20 8 0 14 -6 14 -12
0 -7 14 -26 31 -43 38 -36 149 -182 149 -194 0 -5 3 -11 8 -13 22 -10 181
-294 182 -325 0 -7 4 -13 10 -13 5 0 9 -3 9 -7 -3 -15 14 -73 20 -73 5 0 34
-80 36 -100 0 -3 4 -11 9 -18 4 -7 5 -16 2 -19 -3 -3 0 -15 6 -27 7 -11 13
-25 14 -31 4 -19 13 -60 19 -85 3 -14 8 -38 10 -55 8 -51 10 -60 16 -70 3 -5
5 -25 5 -42 -1 -18 1 -33 4 -33 12 0 18 -346 7 -450 -13 -119 -23 -185 -27
-185 -3 0 -9 -38 -12 -73 -3 -30 1 -35 47 -60 28 -15 52 -30 53 -35 2 -4 8 -5
13 -1 5 3 9 0 9 -5 0 -6 4 -11 10 -11 5 0 44 -20 86 -45 41 -25 77 -45 79 -45
1 0 53 -29 114 -65 62 -36 116 -65 121 -65 4 0 10 -3 12 -8 2 -4 32 -23 68
-41 36 -19 85 -47 109 -63 25 -15 51 -28 58 -28 7 0 13 -4 13 -9 0 -5 8 -11
18 -14 16 -6 60 -30 185 -103 32 -19 62 -34 67 -34 4 0 10 -3 12 -7 2 -5 19
-16 38 -26 77 -39 95 -50 98 -59 2 -4 10 -8 17 -8 7 0 43 -18 79 -40 36 -22
70 -40 76 -40 5 0 10 -4 10 -10 0 -5 4 -10 9 -10 9 0 127 -64 181 -99 14 -8
28 -16 32 -16 4 0 13 -6 19 -12 7 -7 19 -13 26 -13 7 0 13 -4 13 -8 0 -5 16
-14 35 -22 19 -8 35 -18 35 -22 0 -5 4 -6 10 -3 6 3 10 1 10 -5 0 -6 4 -9 9
-6 5 4 11 3 13 -1 4 -9 48 -36 98 -61 19 -9 37 -19 40 -22 3 -3 19 -12 35 -20
17 -8 32 -17 35 -20 6 -6 26 -17 105 -60 79 -43 99 -54 105 -60 3 -3 19 -12
35 -20 17 -8 41 -22 55 -31 24 -15 76 -45 180 -100 25 -13 47 -26 50 -29 3 -3
26 -17 53 -30 26 -14 47 -28 47 -31 0 -3 6 -6 13 -6 7 0 30 -11 52 -25 61 -39
129 -76 139 -76 5 0 12 -4 15 -9 3 -6 31 -23 61 -40 117 -64 157 -87 211 -119
31 -19 62 -34 68 -34 6 0 11 -4 11 -9 0 -5 15 -14 33 -22 17 -7 43 -20 57 -29
14 -9 52 -32 86 -50 l61 -33 41 39 c64 62 184 164 193 164 3 0 16 9 29 20 12
11 46 34 74 52 28 18 53 35 56 38 3 3 30 18 60 34 91 49 94 50 113 65 9 8 17
11 17 8 0 -3 26 6 58 20 31 13 71 31 87 38 17 8 58 21 93 31 34 9 62 20 62 24
0 4 11 6 25 5 14 -2 25 1 25 6 0 5 3 8 8 7 7 -1 72 11 145 27 12 3 40 8 62 11
22 2 51 7 65 9 28 5 227 18 250 16 87 -5 107 -5 103 1 -2 5 6 4 19 -1 13 -5
43 -9 68 -10 39 -1 85 -7 85 -11 0 0 18 -3 40 -5 22 -3 51 -7 65 -10 14 -2 41
-7 60 -11 19 -3 42 -8 50 -11 8 -3 26 -8 40 -10 14 -2 32 -6 40 -10 8 -3 18
-7 23 -8 4 -2 9 -4 12 -5 3 -1 8 -3 13 -5 51 -14 76 -23 143 -51 44 -18 79
-29 79 -26 0 4 4 3 8 -3 7 -10 80 -50 91 -50 3 0 22 -10 42 -23 20 -12 39 -22
43 -22 7 0 217 -139 226 -149 3 -4 30 -26 60 -51 47 -38 237 -225 279 -276 39
-46 81 -105 81 -113 0 -5 4 -11 8 -13 11 -4 72 -94 72 -106 0 -6 3 -12 8 -14
16 -7 152 -275 152 -300 0 -8 4 -18 9 -24 10 -11 68 -186 75 -226 3 -15 7 -32
11 -38 3 -5 8 -24 9 -42 2 -18 7 -44 10 -58 6 -26 13 -71 23 -150 11 -90 6
-505 -7 -505 -1 0 -3 -16 -6 -35 -2 -19 -9 -60 -15 -90 -6 -30 -12 -64 -14
-75 -2 -11 -4 -20 -5 -20 -2 0 -4 -11 -13 -50 -5 -22 -44 -141 -54 -165 -3 -8
-7 -17 -8 -20 -1 -3 -7 -18 -13 -33 -7 -16 -12 -33 -12 -38 0 -5 -5 -9 -11 -9
-5 0 -8 -4 -5 -8 3 -5 -5 -28 -17 -53 -55 -107 -93 -175 -104 -187 -7 -7 -13
-18 -13 -24 0 -5 -8 -20 -17 -33 -10 -12 -25 -33 -33 -45 -8 -13 -25 -35 -37
-50 -13 -15 -23 -33 -23 -40 0 -6 -4 -8 -10 -5 -5 3 -10 2 -10 -4 0 -23 -196
-234 -280 -301 -17 -14 -42 -34 -54 -45 -41 -35 -60 -49 -136 -100 -41 -27
-77 -53 -80 -56 -3 -3 -16 -10 -30 -14 -14 -4 -27 -11 -30 -15 -9 -12 -240
-121 -270 -126 -8 -2 -16 -8 -18 -14 -2 -5 -7 -8 -11 -5 -5 2 -32 -5 -62 -15
-30 -11 -63 -22 -74 -25 -11 -2 -38 -9 -60 -15 -74 -20 -80 -21 -110 -26 -39
-6 -70 -12 -70 -14 0 -1 -13 -3 -30 -5 -16 -1 -61 -6 -100 -10 -38 -4 -99 -8
-135 -9 -36 -1 -70 -4 -76 -8 -6 -4 -14 -4 -18 0 -7 7 -46 10 -187 15 -37 1
-65 5 -63 8 2 3 -13 7 -34 8 -20 2 -45 3 -54 4 -10 1 -18 5 -18 10 0 4 -4 6
-8 3 -7 -4 -99 14 -150 30 -7 2 -16 4 -20 5 -4 1 -31 10 -59 20 -29 10 -53 16
-53 13 0 -2 -10 2 -22 10 -23 14 -77 31 -90 28 -5 -1 -8 2 -8 7 0 5 -15 14
-33 20 -33 11 -87 37 -117 56 -8 5 -17 10 -20 11 -17 3 -49 21 -76 41 -17 13
-34 23 -37 23 -9 0 -102 63 -105 72 -2 4 -10 8 -18 8 -8 0 -14 4 -14 8 0 5 -8
13 -19 18 -47 23 -294 258 -356 339 -16 21 -38 46 -47 54 -10 9 -18 21 -18 28
0 7 -4 13 -10 13 -5 0 -10 7 -10 15 0 9 -7 18 -15 21 -8 4 -15 12 -15 18 0 7
-8 21 -19 32 -10 11 -22 30 -25 42 -4 12 -12 22 -17 22 -5 0 -9 6 -9 13 0 7
-11 29 -25 50 -14 20 -22 37 -18 37 4 0 3 4 -4 8 -6 4 -13 14 -15 22 -2 8 -9
21 -16 28 -7 8 -10 18 -7 23 4 5 1 9 -5 9 -6 0 -8 5 -5 10 3 6 1 10 -4 10 -6
0 -10 3 -9 8 1 8 -3 18 -38 100 -13 29 -23 56 -22 60 1 4 -2 16 -6 27 -24 63
-28 75 -28 82 0 4 -4 18 -9 31 -5 12 -11 33 -13 45 -3 12 -10 47 -16 77 -12
57 -18 88 -23 127 -2 12 -6 25 -10 29 -3 4 -2 15 4 25 5 11 6 19 2 19 -10 0
-16 91 -15 240 1 103 8 235 12 235 1 0 4 11 5 25 2 14 6 43 9 65 3 22 8 51 11
65 4 14 8 34 9 45 2 11 4 20 6 20 1 0 3 11 6 25 3 21 -2 28 -34 42 -43 20 -96
50 -115 67 -8 6 -17 8 -20 4 -4 -3 -7 -1 -7 5 0 7 -7 12 -15 12 -8 0 -15 5
-15 11 0 5 -4 8 -9 4 -5 -3 -15 1 -23 8 -7 7 -24 18 -38 25 -25 12 -44 23 -92
55 -14 9 -33 17 -42 17 -9 0 -16 4 -16 9 0 5 -16 15 -35 22 -19 7 -35 17 -35
21 0 4 -4 8 -8 8 -5 0 -64 32 -131 70 -68 39 -127 70 -132 70 -5 0 -9 3 -9 8
0 4 -13 13 -30 20 -16 7 -45 24 -65 37 -19 14 -35 22 -35 19 0 -3 -13 4 -29
15 -16 12 -34 21 -40 21 -6 0 -11 5 -11 10 0 6 -6 10 -14 10 -8 0 -21 6 -28
13 -7 6 -29 20 -48 29 -56 27 -115 62 -118 71 -2 4 -7 5 -12 2 -4 -3 -13 2
-20 10 -7 8 -19 15 -26 15 -8 0 -14 5 -14 10 0 6 -9 10 -20 10 -11 0 -20 4
-20 9 0 5 -17 16 -37 25 -41 18 -95 48 -103 57 -3 3 -24 15 -47 26 -54 28 -87
47 -93 53 -3 3 -18 12 -35 20 -16 8 -38 21 -47 29 -10 8 -18 10 -18 5 0 -5 -4
-4 -8 2 -7 10 -65 44 -192 112 -36 20 -67 38 -70 41 -3 4 -27 18 -55 32 -46
24 -210 117 -245 139 -8 5 -37 21 -65 36 -27 15 -53 32 -57 38 -4 6 -8 7 -8 3
0 -5 -12 0 -27 10 -16 10 -41 25 -58 33 -16 8 -36 21 -43 28 -7 6 -20 12 -28
12 -8 0 -14 3 -14 8 0 4 -20 16 -45 27 -25 11 -45 23 -45 28 0 4 -5 7 -11 7
-7 0 -35 14 -63 32 -28 17 -73 43 -101 58 -69 36 -99 54 -105 61 -3 3 -20 11
-37 18 -18 8 -33 16 -33 20 0 3 -25 17 -55 31 -30 14 -55 28 -55 31 0 3 -16
11 -35 19 -19 8 -35 17 -35 20 0 3 -16 12 -35 20 -19 8 -35 16 -35 19 0 4 -15
12 -32 20 -18 8 -35 17 -38 20 -3 3 -27 17 -53 31 l-48 25 -73 -70 c-40 -38
-88 -82 -107 -97 -19 -14 -47 -38 -63 -52 -17 -13 -33 -23 -38 -20 -4 3 -8 1
-8 -4 0 -6 -39 -34 -86 -63 -47 -30 -92 -60 -99 -66 -8 -7 -17 -13 -20 -13 -4
0 -48 -20 -97 -45 -50 -25 -94 -42 -99 -39 -5 3 -9 2 -9 -3 0 -9 -34 -24 -92
-43 -21 -6 -40 -16 -44 -21 -3 -5 -10 -7 -15 -3 -5 3 -20 -1 -32 -9 -24 -15
-23 -4 -17 -217 1 -41 1 -79 0 -85 -2 -5 -1 -14 0 -20 1 -5 3 -166 5 -356 1
-191 6 -353 10 -360 5 -8 4 -10 -3 -5 -14 8 -14 0 -3 -29 5 -11 4 -28 -1 -37
-6 -12 -5 -18 2 -18 7 0 8 -6 1 -19 -6 -10 -8 -21 -5 -24 5 -5 11 -424 17
-1129 1 -118 6 -188 12 -188 6 0 6 -3 0 -8 -14 -9 -14 -85 0 -94 7 -5 6 -8 -1
-8 -11 0 -12 -60 -1 -77 3 -5 2 -15 -3 -23 -5 -9 -5 -19 2 -27 7 -9 7 -13 -1
-13 -8 0 -9 -5 -1 -19 7 -13 7 -22 0 -26 -7 -4 -7 -13 0 -24 6 -12 5 -22 -2
-29 -9 -9 -9 -12 0 -12 9 0 10 -5 3 -17 -5 -9 -5 -26 -1 -38 5 -12 4 -28 0
-35 -5 -8 -6 -19 -2 -25 10 -15 10 -75 0 -81 -5 -3 -5 -11 -1 -17 4 -7 8 -115
9 -242 1 -126 3 -271 4 -321 2 -50 0 -96 -4 -102 -3 -6 0 -13 6 -16 10 -5 10
-7 1 -12 -7 -3 -9 -14 -5 -27 4 -12 7 -124 7 -249 0 -126 4 -228 8 -228 5 0 5
-6 1 -12 -9 -15 -9 -162 0 -177 4 -5 2 -13 -4 -16 -7 -5 -8 -11 -1 -19 6 -7 6
-18 1 -26 -5 -7 -4 -24 2 -39 6 -17 6 -27 -1 -29 -6 -2 -8 -8 -5 -14 4 -5 6
-27 6 -49 -1 -21 4 -39 9 -39 6 0 7 -6 3 -12 -4 -7 -4 -10 0 -6 4 3 25 0 46
-7 21 -7 41 -11 44 -8 3 4 6 2 6 -4 0 -5 6 -10 13 -10 6 0 44 -15 82 -33 39
-18 76 -34 84 -36 8 -1 17 -6 20 -11 3 -4 12 -9 20 -11 8 -2 27 -12 42 -23 15
-10 30 -19 33 -19 6 0 108 -61 116 -69 3 -4 29 -22 57 -41 29 -19 53 -38 53
-42 0 -5 5 -8 12 -8 6 0 18 -7 27 -15 9 -8 37 -33 63 -56 83 -71 258 -252 258
-265 0 -4 18 -28 40 -54 22 -26 40 -51 40 -55 0 -3 6 -13 13 -20 21 -24 31
-39 51 -75 11 -19 22 -37 26 -40 19 -14 166 -332 176 -380 0 -3 3 -12 7 -20
12 -32 46 -160 52 -197 2 -11 6 -32 10 -44 5 -13 9 -35 11 -49 1 -14 5 -35 8
-47 24 -108 25 -505 0 -623 -3 -14 -7 -38 -10 -55 -14 -84 -22 -118 -38 -164
-9 -22 -13 -41 -11 -41 2 0 -5 -26 -16 -57 -11 -32 -22 -62 -23 -68 -1 -5 -10
-28 -20 -49 -9 -22 -19 -50 -22 -63 -4 -13 -11 -23 -17 -23 -6 0 -7 -3 -4 -7
4 -3 2 -12 -4 -20 -6 -7 -8 -13 -3 -13 5 0 5 -4 -1 -8 -5 -4 -28 -43 -50 -87
-22 -44 -43 -84 -48 -90 -4 -5 -28 -41 -53 -80 -25 -38 -54 -79 -65 -91 -10
-11 -19 -23 -19 -27 0 -4 -8 -15 -17 -26 -10 -10 -34 -37 -53 -60 -48 -58
-158 -168 -215 -216 -26 -22 -52 -45 -59 -50 -6 -6 -33 -26 -61 -45 -27 -19
-52 -37 -55 -40 -21 -22 -148 -97 -240 -143 -36 -17 -68 -36 -72 -42 -4 -5 -8
-6 -8 -1 0 5 -6 3 -13 -3 -8 -6 -17 -8 -20 -4 -4 3 -7 1 -7 -5 0 -7 -8 -12
-18 -12 -10 0 -26 -6 -37 -14 -11 -7 -36 -17 -55 -21 -19 -4 -40 -11 -45 -16
-6 -4 -22 -9 -35 -11 -14 -2 -31 -7 -37 -11 -7 -5 -13 -6 -13 -3 0 3 -17 -2
-37 -11 -21 -8 -39 -15 -40 -14 -2 0 -4 1 -5 0 -26 -8 -152 -29 -190 -32 -16
-1 -28 -4 -28 -7 0 -8 -100 -12 -265 -12 -171 0 -265 4 -265 12 0 3 -12 6 -27
6 -57 3 -95 9 -99 15 -2 4 -13 5 -24 2 -11 -3 -20 -1 -20 4 0 5 -10 9 -22 8
-13 -1 -29 3 -37 9 -8 6 -15 9 -15 7 -1 -5 -107 19 -121 28 -5 3 -15 6 -22 7
-15 3 -134 50 -201 80 -29 13 -56 24 -61 24 -5 0 -14 7 -21 15 -7 9 -15 13
-18 11 -3 -3 -17 3 -32 14 -16 11 -33 20 -39 20 -6 0 -11 3 -11 8 0 4 -15 14
-32 21 -18 8 -38 20 -45 25 -35 31 -43 36 -43 29 0 -4 -4 -3 -8 3 -4 5 -29 26
-57 45 -27 18 -60 44 -72 56 -12 13 -25 23 -28 23 -5 0 -87 74 -156 143 -33
33 -107 117 -149 170 -8 11 -20 24 -25 31 -6 6 -34 47 -63 91 -29 44 -57 87
-64 96 -6 10 -10 20 -9 24 2 4 -1 11 -6 14 -5 3 -25 38 -43 76 -19 39 -38 72
-42 73 -5 2 -8 9 -8 15 0 6 -15 50 -34 97 -31 76 -69 192 -81 245 -26 118 -45
225 -49 277 -3 34 -6 63 -7 63 -6 0 -4 303 3 317 5 10 4 19 -2 23 -6 4 -7 11
-4 17 7 10 10 29 19 108 7 57 17 110 35 180 17 71 18 75 20 75 1 0 6 17 13 48
1 6 6 18 10 25 5 6 5 17 2 22 -3 6 -1 10 4 10 6 0 10 3 9 8 -4 15 14 72 23 72
6 0 9 6 8 13 -1 6 6 30 16 52 10 22 19 42 20 45 0 3 7 16 15 30 8 14 15 27 16
30 3 13 18 46 23 50 3 3 17 25 30 50 71 135 228 340 352 461 67 64 129 119
135 119 3 0 15 11 28 25 13 14 28 25 35 25 6 0 11 5 11 10 0 6 7 10 15 10 8 0
15 3 15 8 0 4 21 20 48 37 26 16 49 32 52 35 8 9 99 61 102 58 2 -2 17 6 33
17 17 11 46 28 65 37 19 9 59 28 88 42 29 14 56 25 60 24 4 -1 25 6 47 16 21
9 48 19 60 21 11 2 22 4 25 5 3 2 8 2 13 1 4 0 7 4 7 10 0 5 4 8 8 5 5 -3 28
2 53 10 24 9 52 16 61 17 17 1 20 5 17 23 0 4 5 11 13 15 7 5 8 9 2 9 -7 0
-11 45 -11 133 -2 396 -14 1281 -18 1285 -2 3 0 13 6 23 5 11 6 19 2 19 -4 0
-9 123 -10 273 -5 735 -12 1187 -16 1194 -3 5 -2 15 3 23 4 7 5 23 2 34 -9 26
-7 79 2 95 4 6 4 11 -1 11 -4 0 -9 132 -10 293 -4 644 -11 1149 -16 1154 -3 3
-3 11 0 19 3 9 -2 14 -13 15 -11 0 -26 2 -34 4 -8 3 -24 6 -35 7 -11 2 -22 6
-25 9 -3 3 -39 16 -80 29 -41 13 -79 27 -85 32 -5 4 -17 8 -27 8 -10 0 -18 5
-18 10 0 6 -3 9 -7 8 -16 -3 -170 68 -179 83 -3 5 -14 9 -25 9 -10 0 -19 5
-19 10 0 6 -8 13 -17 17 -20 7 -191 120 -209 137 -6 6 -26 22 -44 36 -39 29
-270 255 -270 264 0 3 -8 14 -17 24 -37 38 -63 72 -63 82 0 6 -4 10 -10 10 -5
0 -10 6 -10 13 0 7 -9 19 -20 27 -11 8 -20 20 -20 26 0 7 -12 26 -26 43 -14
17 -23 31 -19 31 3 0 -3 12 -14 26 -12 15 -21 32 -21 40 0 7 -4 14 -8 16 -8 3
-84 154 -103 206 -5 12 -13 32 -18 45 -25 60 -50 137 -45 137 4 0 2 6 -4 13
-5 6 -13 26 -16 42 -8 44 -33 131 -41 146 -5 8 -4 10 3 5 9 -5 9 -1 3 17 -9
24 -16 67 -28 182 -8 80 -8 356 1 425 6 51 9 67 21 140 3 14 9 48 15 75 6 28
12 57 14 65 1 9 6 21 10 28 9 16 12 13 -44 43 -25 13 -47 26 -50 29 -3 3 -23
14 -45 26 -78 41 -160 87 -185 104 -14 9 -41 24 -60 34 -47 22 -74 39 -82 51
-4 6 -8 6 -8 2 0 -5 -13 1 -29 12 -16 12 -32 21 -35 21 -3 0 -35 18 -71 40
-36 22 -69 40 -74 40 -5 0 -11 3 -13 8 -1 4 -25 18 -53 32 -27 13 -52 27 -55
31 -3 3 -25 16 -50 29 -25 14 -53 31 -62 39 -10 8 -18 11 -18 7 0 -4 -13 2
-29 13 -16 12 -34 21 -40 21 -6 0 -11 4 -11 9 0 5 -8 11 -17 14 -19 6 -121 63
-139 78 -6 5 -14 6 -17 2 -4 -3 -7 -2 -7 3 0 6 -34 27 -75 49 -41 21 -75 42
-75 47 0 5 -4 7 -9 4 -5 -4 -11 -3 -13 1 -1 5 -21 17 -43 28 -22 11 -42 22
-45 25 -3 3 -31 19 -62 35 -32 17 -58 33 -58 38 0 4 -9 7 -20 7 -11 0 -20 3
-20 8 0 4 -15 13 -32 21 -18 8 -44 22 -58 31 -25 18 -126 74 -167 94 -13 6
-23 15 -23 19 0 5 -4 6 -9 3 -5 -3 -14 1 -21 9 -7 8 -18 15 -25 15 -7 0 -18 7
-25 15 -7 8 -16 12 -21 9 -5 -3 -9 -2 -9 3 0 4 -10 13 -23 19 -47 23 -112 58
-117 63 -3 4 -25 17 -50 30 -25 13 -53 31 -62 39 -10 8 -18 12 -18 9 0 -4 -25
9 -55 28 -30 20 -55 32 -55 28 0 -4 -4 -3 -8 2 -4 6 -18 16 -32 24 -152 88
-231 131 -240 131 -5 0 -10 5 -10 10 0 6 -7 10 -15 10 -8 0 -15 5 -15 11 0 5
-4 7 -10 4 -5 -3 -10 -1 -10 4 0 6 -3 10 -7 9 -8 -2 -44 17 -153 82 -25 14
-65 37 -90 50 -25 13 -47 26 -50 29 -3 3 -25 16 -50 29 -77 40 -125 67 -130
73 -9 9 -192 109 -201 109 -5 0 -9 3 -9 8 0 4 -15 13 -33 21 -17 8 -34 17 -37
20 -3 4 -30 19 -60 35 -30 16 -58 34 -62 40 -4 6 -8 7 -8 2 0 -5 -6 -4 -12 2
-7 5 -30 19 -50 30 l-36 21 -15 -22 c-8 -12 -28 -36 -43 -54 -16 -18 -40 -47
-54 -65 -14 -18 -35 -43 -47 -55 -12 -13 -20 -23 -17 -23 5 0 -12 -22 -40 -50
-11 -11 -17 -20 -13 -20 4 0 -1 -8 -11 -18 -9 -10 -44 -53 -77 -97 -33 -44
-63 -81 -67 -83 -5 -2 -8 -8 -8 -13 0 -8 -47 -73 -90 -126 -6 -7 -10 -16 -10
-21 0 -5 -9 -17 -20 -27 -11 -10 -20 -24 -20 -30 0 -7 -7 -15 -15 -19 -8 -3
-15 -12 -15 -21 0 -8 -4 -15 -10 -15 -5 0 -10 -4 -10 -10 0 -14 -62 -100 -73
-100 -4 0 -6 -4 -3 -9 3 -4 -5 -22 -17 -39 -58 -79 -127 -189 -127 -202 0 -5
-5 -10 -10 -10 -6 0 -14 -8 -17 -17 -4 -10 -18 -36 -32 -58 -14 -22 -26 -42
-26 -45 0 -3 -8 -17 -18 -32 -9 -16 -25 -40 -34 -55 -10 -16 -17 -31 -16 -35
2 -3 -4 -12 -12 -18 -8 -7 -15 -17 -15 -22 0 -5 -7 -16 -15 -25 -8 -8 -13 -19
-10 -24 4 -5 3 -9 -2 -9 -4 0 -14 -15 -22 -32 -8 -18 -17 -35 -20 -38 -11 -9
-202 -371 -206 -390 -3 -15 -51 -106 -58 -111 -5 -3 -9 -10 -9 -15 0 -9 -15
-45 -70 -164 -17 -36 -38 -83 -48 -105 -10 -22 -24 -56 -33 -75 -9 -20 -30
-71 -48 -115 -17 -44 -36 -89 -42 -100 -6 -11 -11 -24 -12 -30 0 -5 -8 -26
-16 -45 -9 -19 -22 -52 -29 -73 -6 -22 -18 -51 -26 -65 -8 -15 -14 -35 -14
-44 0 -10 -5 -18 -12 -18 -6 0 -9 -2 -6 -5 3 -3 -7 -40 -22 -83 -15 -42 -30
-84 -33 -92 -3 -8 -17 -51 -32 -95 -14 -44 -29 -87 -32 -95 -3 -8 -7 -19 -8
-25 -1 -5 -3 -14 -5 -20 -1 -5 -3 -14 -4 -20 -1 -5 -5 -17 -9 -25 -6 -15 -48
-155 -53 -175 -1 -5 -9 -36 -19 -69 -9 -32 -18 -64 -20 -70 -1 -6 -5 -18 -8
-26 -4 -8 -8 -26 -9 -40 -2 -14 -7 -31 -11 -37 -5 -7 -5 -17 -2 -23 3 -5 1
-10 -4 -10 -6 0 -10 -3 -9 -7 2 -11 -13 -86 -20 -98 -3 -5 -7 -23 -9 -40 -2
-16 -7 -41 -12 -55 -6 -14 -15 -50 -21 -80 -13 -67 -23 -117 -36 -170 -3 -14
-7 -36 -9 -50 -2 -14 -4 -25 -5 -25 -2 0 -6 -20 -14 -70 -4 -22 -12 -69 -18
-105 -7 -36 -12 -74 -13 -85 0 -11 -3 -22 -6 -25 -4 -3 -9 -31 -13 -63 -3 -31
-8 -67 -11 -80 -3 -12 -7 -40 -9 -62 -3 -22 -5 -40 -6 -40 -3 0 -7 -28 -14
-90 -4 -33 -9 -75 -11 -94 -6 -43 -15 -133 -20 -191 -2 -25 -4 -45 -5 -45 -1
0 -3 -25 -6 -55 -11 -137 -15 -201 -17 -277 -1 -46 -4 -83 -7 -83 -8 0 -13
-189 -13 -530 -1 -265 7 -565 13 -565 1 0 3 -29 5 -65 12 -195 14 -225 16
-225 1 0 2 -20 3 -45 1 -25 4 -49 7 -55 2 -5 5 -31 4 -57 0 -27 3 -48 6 -48 3
0 6 -20 6 -45 1 -25 2 -46 3 -47 2 -4 5 -26 14 -103 3 -33 9 -73 11 -90 3 -16
7 -41 9 -55 2 -14 7 -45 11 -70 9 -55 14 -94 20 -140 3 -19 9 -57 15 -85 6
-27 13 -63 16 -80 3 -16 7 -39 9 -50 2 -11 7 -36 10 -55 3 -19 11 -49 16 -66
5 -18 9 -36 7 -40 -2 -9 19 -105 29 -134 3 -8 7 -26 9 -40 5 -39 9 -54 17 -67
5 -7 6 -13 3 -13 -2 0 0 -15 5 -32 6 -18 12 -48 15 -67 2 -19 8 -39 11 -45 7
-11 11 -23 17 -56 4 -23 17 -73 23 -90 10 -25 14 -44 15 -67 0 -13 4 -23 9
-23 5 0 9 -8 9 -17 0 -10 12 -56 26 -103 15 -47 29 -97 31 -113 3 -15 8 -27
12 -27 4 0 7 -9 8 -19 1 -11 9 -41 18 -68 9 -26 18 -55 20 -63 2 -8 4 -16 5
-17 2 -2 3 -6 5 -10 1 -5 5 -17 9 -28 7 -18 13 -36 30 -88 3 -9 6 -19 6 -22 0
-3 9 -25 20 -50 11 -25 20 -49 21 -53 4 -17 12 -41 35 -97 13 -33 24 -64 24
-68 0 -4 9 -27 19 -50 11 -24 23 -55 26 -70 4 -15 11 -30 16 -33 5 -3 9 -11 9
-18 0 -8 12 -40 27 -72 15 -33 28 -63 29 -69 1 -5 16 -40 33 -77 17 -36 31
-69 31 -72 0 -16 241 -509 253 -517 5 -3 9 -10 8 -15 0 -9 40 -95 49 -104 3
-3 12 -18 20 -35 8 -16 30 -57 49 -90 19 -33 34 -62 34 -65 -1 -3 3 -11 9 -18
15 -18 48 -74 54 -94 4 -10 9 -18 13 -18 4 0 13 -16 21 -35 8 -19 17 -35 22
-35 4 0 8 -4 8 -10 0 -5 32 -60 71 -122 40 -62 77 -122 83 -133 12 -22 46 -74
59 -90 4 -5 27 -39 50 -75 86 -128 138 -205 145 -210 4 -3 13 -17 21 -32 8
-16 18 -28 23 -28 4 0 8 -6 8 -14 0 -8 4 -16 8 -18 4 -1 23 -25 42 -53 19 -27
47 -63 62 -80 16 -16 28 -33 28 -36 0 -3 9 -17 20 -30 11 -13 23 -28 27 -34 5
-5 24 -30 43 -55 48 -61 63 -80 78 -95 6 -8 12 -16 12 -19 0 -3 8 -14 17 -24
10 -10 32 -35 48 -56 17 -21 39 -48 50 -60 11 -12 43 -49 70 -81 201 -237 545
-595 769 -800 48 -44 105 -96 126 -115 20 -19 62 -55 91 -80 30 -25 66 -56 81
-70 15 -14 41 -36 59 -49 17 -14 45 -37 61 -53 17 -15 32 -28 35 -28 2 0 10
-6 17 -13 7 -6 30 -25 51 -42 21 -16 47 -38 57 -48 10 -9 21 -17 24 -17 4 0
21 -12 38 -28 18 -15 47 -38 66 -52 18 -14 54 -41 79 -61 25 -19 93 -68 151
-109 58 -41 107 -78 108 -82 2 -5 8 -8 13 -8 10 0 60 -34 93 -62 11 -10 24
-18 28 -18 5 0 18 -9 30 -20 12 -10 24 -17 28 -15 3 2 13 -5 20 -16 8 -10 22
-19 32 -19 10 0 18 -5 18 -10 0 -6 12 -16 28 -23 15 -6 31 -17 35 -24 4 -7 12
-13 17 -13 9 0 122 -69 146 -89 6 -5 20 -12 32 -15 12 -4 22 -12 22 -17 0 -5
5 -9 10 -9 6 0 34 -15 63 -33 29 -18 81 -49 117 -68 36 -18 71 -39 78 -46 12
-12 21 -15 38 -12 4 0 10 -4 13 -9 7 -11 111 -68 271 -148 63 -32 118 -62 121
-67 3 -5 9 -8 13 -7 3 0 48 -19 99 -43 109 -52 129 -61 140 -59 4 1 7 -3 7 -8
0 -6 4 -10 10 -10 5 0 35 -12 67 -27 32 -15 61 -26 66 -25 4 1 7 -3 7 -8 0 -5
3 -9 8 -8 13 3 62 -14 62 -21 0 -4 6 -8 13 -8 19 -1 121 -47 129 -58 4 -5 8
-7 8 -2 0 4 17 0 38 -9 20 -9 43 -17 50 -17 6 0 12 -3 12 -7 0 -4 20 -13 45
-20 25 -7 45 -16 45 -19 0 -4 8 -7 18 -8 9 -1 31 -7 47 -14 17 -7 33 -12 38
-11 4 1 7 -2 7 -6 0 -5 6 -9 13 -10 18 -1 38 -7 72 -21 17 -7 37 -14 45 -16 8
-2 53 -18 100 -35 47 -17 85 -30 85 -29 0 2 20 -5 45 -14 39 -14 216 -70 230
-72 3 -1 32 -9 65 -19 33 -10 67 -20 75 -21 8 -2 15 -4 15 -5 0 -1 7 -3 15 -5
8 -1 38 -9 65 -18 28 -8 53 -15 58 -16 4 0 8 -1 10 -2 13 -4 46 -10 62 -12 11
-1 22 -5 25 -9 3 -3 19 -8 35 -11 17 -3 40 -8 53 -11 55 -14 69 -17 92 -21 14
-2 40 -9 59 -14 18 -6 36 -10 40 -9 3 0 9 -1 14 -2 9 -3 14 -4 57 -13 19 -4
46 -10 60 -13 14 -3 34 -7 45 -9 11 -2 56 -11 100 -19 79 -15 106 -20 175 -32
36 -6 96 -15 118 -16 6 -1 12 -4 12 -7 0 -3 12 -7 28 -7 37 -2 120 -11 157
-19 17 -3 50 -7 75 -9 25 -3 45 -5 45 -6 0 -1 16 -3 35 -5 19 -2 60 -6 90 -10
30 -3 80 -8 110 -12 30 -3 74 -6 97 -7 24 0 43 -3 43 -6 0 -3 24 -6 53 -6 128
-4 189 -9 193 -16 3 -4 16 -3 29 2 13 5 27 5 30 1 5 -9 1044 -12 1059 -4 4 3
31 6 60 7 28 1 57 5 64 9 7 5 12 3 12 -4 0 -8 4 -8 15 1 11 9 15 9 15 1 0 -7
5 -9 12 -5 7 5 31 9 53 10 22 1 74 5 115 9 41 3 89 7 105 8 17 2 36 7 44 11 8
5 17 3 22 -5 5 -8 9 -9 9 -4 0 6 17 11 38 12 47 3 119 11 155 18 15 3 45 7 67
8 22 1 40 5 40 8 0 4 16 5 35 3 19 -1 35 1 35 5 0 4 17 8 38 9 20 0 51 4 67 7
17 4 41 9 55 10 14 2 25 4 25 5 0 1 11 3 25 5 100 14 195 32 195 35 0 1 14 3
30 6 48 7 59 9 70 15 6 3 20 4 33 3 12 0 22 2 22 6 0 4 12 8 28 8 26 2 64 8
70 12 1 2 11 4 22 5 11 1 22 4 25 5 3 1 8 3 13 4 9 3 123 29 137 32 6 1 37 9
70 18 33 9 71 19 85 21 14 2 57 14 95 25 39 12 79 23 90 26 28 7 35 9 85 24
25 7 50 14 55 16 6 1 62 19 125 39 63 20 120 37 125 38 6 1 16 6 23 10 6 5 12
5 12 1 0 -3 7 -1 15 6 8 7 15 9 15 5 0 -4 6 -3 13 2 6 6 33 16 60 24 26 7 47
17 47 22 0 4 5 5 10 2 6 -4 17 -1 25 5 8 7 15 10 15 7 0 -4 20 2 45 13 25 11
46 19 48 19 2 0 54 18 77 28 8 3 18 7 23 8 4 2 10 4 15 5 4 1 10 2 15 1 4 0 7
4 7 11 0 6 3 9 6 5 3 -3 22 3 41 14 19 11 32 15 28 9 -3 -6 0 -7 9 -4 9 3 16
9 16 13 0 4 6 8 14 8 7 0 36 10 62 23 27 13 55 23 62 21 6 -1 12 2 12 7 0 5 6
9 13 9 6 0 41 14 77 30 36 17 68 29 71 29 4 -1 17 8 30 19 12 11 19 14 15 7
-4 -7 8 -4 27 7 19 11 38 17 41 14 3 -4 6 -2 6 3 0 6 23 18 50 28 28 10 50 21
50 25 0 4 18 13 40 20 22 6 40 16 40 22 0 6 5 7 11 3 6 -3 14 -3 18 2 6 9 80
47 93 48 3 1 10 5 15 9 9 10 70 36 80 36 3 -1 9 3 12 8 11 15 108 63 115 56 3
-3 6 -2 6 4 0 10 49 38 63 35 4 -1 7 1 7 6 0 4 15 13 33 21 17 8 34 17 37 21
3 3 31 19 63 35 31 16 62 34 68 42 7 7 20 13 30 13 11 0 19 4 19 9 0 5 8 11
18 15 9 3 46 24 82 47 36 23 86 52 113 66 26 14 47 29 47 34 0 5 7 9 15 9 8 0
15 5 15 11 0 5 4 8 9 5 4 -3 16 3 26 14 10 11 24 20 31 20 7 0 17 7 22 16 5 9
11 14 14 12 4 -3 167 100 178 113 3 3 32 23 65 44 33 22 62 42 65 45 11 12 79
60 85 60 4 0 12 6 19 12 7 7 25 22 41 33 54 39 240 179 245 185 3 3 25 21 50
40 25 19 50 39 56 45 7 5 26 21 44 35 18 14 37 30 44 35 6 6 38 32 71 59 33
28 67 56 75 63 8 8 27 24 41 36 26 23 60 52 215 192 49 44 179 170 289 280
226 226 382 395 532 572 10 12 27 32 38 45 26 30 120 145 148 181 12 15 27 33
33 40 6 7 55 71 109 142 54 71 102 134 107 139 9 12 93 129 118 166 8 13 21
28 28 36 6 7 12 15 12 18 0 2 20 33 44 68 86 123 282 432 292 461 3 9 10 17
15 17 5 0 9 6 9 13 0 6 14 32 30 57 17 25 37 59 45 75 8 17 26 48 39 70 14 22
39 67 56 100 18 33 44 83 59 110 109 200 309 620 304 637 -2 4 1 8 6 8 9 0 47
98 43 113 -1 4 2 7 7 7 7 0 33 50 37 73 1 4 3 9 4 12 1 3 3 8 4 13 1 4 7 16
13 27 6 11 12 25 13 30 1 6 6 19 10 30 73 186 89 229 95 255 4 16 10 30 15 30
4 0 11 15 15 33 4 17 9 34 9 37 1 3 11 32 21 65 11 33 24 63 30 67 5 4 6 8 1
8 -5 0 -3 7 4 15 7 9 10 18 7 22 -4 3 -1 15 5 27 7 11 13 26 14 31 2 6 5 19 8
30 2 11 11 39 19 62 9 22 13 44 10 47 -4 3 -1 6 6 6 7 0 9 5 6 10 -4 6 -2 16
3 23 5 7 13 28 18 47 11 50 11 50 14 53 1 1 3 10 5 20 2 10 7 26 11 35 4 9 8
22 9 27 2 6 10 37 20 70 9 33 18 69 19 80 2 11 4 20 5 20 4 0 11 37 14 62 1
13 6 23 11 23 5 0 7 2 4 6 -3 3 1 26 8 52 8 26 17 59 19 73 3 15 16 73 29 130
14 57 27 118 29 134 3 17 10 53 17 81 6 28 13 64 15 80 2 16 4 29 5 29 2 0 5
19 16 85 4 25 8 47 9 50 0 3 5 28 10 55 5 28 9 52 10 55 0 3 5 32 9 65 4 32
10 68 13 80 2 11 6 40 9 65 9 74 12 95 14 95 0 0 3 20 5 45 2 25 7 68 10 95 3
28 8 68 10 90 2 22 7 63 10 90 3 28 7 84 10 125 3 41 8 100 10 130 13 157 19
370 19 685 -1 404 -9 583 -40 925 -3 41 -7 84 -8 95 -1 11 -5 25 -9 32 -4 6
-3 14 3 18 6 4 7 12 3 18 -9 14 -10 21 -17 96 -3 31 -7 67 -10 81 -2 14 -7 48
-11 75 -3 28 -10 76 -16 107 -5 32 -12 77 -15 100 -5 45 -11 83 -14 83 -1 0
-4 16 -6 35 -3 19 -9 55 -14 80 -5 25 -12 61 -15 80 -3 19 -9 53 -14 75 -6 22
-8 41 -6 44 2 2 0 11 -4 20 -5 9 -12 32 -15 51 -3 19 -15 73 -25 119 -11 47
-17 89 -15 93 3 4 0 8 -6 8 -7 0 -10 6 -7 14 3 8 3 17 -1 21 -4 4 -7 10 -8 13
0 4 -4 25 -9 47 -5 22 -9 42 -10 45 0 3 -4 11 -8 18 -5 6 -6 12 -3 12 3 0 1
12 -5 28 -6 15 -12 36 -14 47 -1 11 -10 45 -18 75 -9 30 -19 66 -22 80 -4 14
-9 31 -11 38 -2 7 -3 13 -3 15 0 1 -9 28 -20 60 -11 31 -18 57 -15 57 2 0 -3
14 -11 31 -9 17 -14 33 -11 37 3 3 1 10 -4 17 -5 6 -11 20 -13 31 -2 10 -7 26
-10 34 -23 62 -81 246 -79 253 1 4 -2 7 -8 7 -6 0 -9 3 -8 8 3 10 -33 115 -45
130 -5 6 -6 12 -3 12 4 0 1 10 -6 23 -6 12 -13 31 -15 42 -2 10 -9 23 -16 27
-6 4 -9 8 -5 8 6 0 -24 85 -52 145 -5 11 -25 61 -45 110 -20 50 -46 110 -58
135 -11 25 -22 50 -23 55 -1 6 -20 49 -43 96 -23 47 -41 91 -41 98 0 6 -5 11
-10 11 -6 0 -9 3 -8 8 1 4 -6 22 -15 40 -10 17 -14 32 -10 32 5 0 3 4 -2 8 -6
4 -42 70 -81 147 -79 157 -146 283 -193 365 -18 30 -35 63 -38 73 -3 9 -8 17
-12 17 -4 0 -15 20 -26 45 -11 25 -23 45 -28 45 -4 0 -12 12 -18 27 -10 26
-163 275 -223 363 -17 25 -35 53 -41 62 -17 29 -178 263 -185 268 -4 3 -26 34
-51 69 -70 101 -73 105 -96 131 -13 14 -23 28 -23 32 0 5 -8 17 -17 27 -10 11
-23 26 -28 33 -6 7 -26 33 -45 58 -19 25 -38 47 -43 48 -4 2 -5 8 -1 13 3 5
-1 9 -8 9 -8 0 -21 12 -30 28 -9 15 -29 42 -45 59 -15 18 -38 45 -51 60 -12
16 -30 37 -40 49 -69 85 -269 309 -354 398 -32 33 -58 64 -58 69 0 4 -4 5 -10
2 -5 -3 -10 -2 -10 3 0 19 -395 402 -564 547 -32 28 -73 64 -91 80 -65 59 -95
85 -100 85 -3 0 -13 8 -23 18 -44 41 -83 72 -92 72 -5 0 -10 4 -10 8 0 4 -35
34 -77 67 -78 60 -92 71 -141 112 -15 13 -30 23 -34 23 -4 0 -17 10 -30 23
-13 12 -43 36 -68 52 -25 17 -51 35 -58 42 -7 7 -26 20 -42 30 -17 9 -30 21
-30 25 0 4 -5 8 -11 8 -7 0 -32 16 -55 36 -24 19 -44 32 -44 27 0 -4 -4 -3 -8
3 -9 15 -348 240 -417 278 -42 23 -67 39 -83 54 -7 7 -18 10 -23 7 -5 -4 -9
-2 -9 3 0 5 -16 17 -35 26 -19 9 -35 22 -35 28 0 6 -3 9 -6 5 -6 -6 -125 60
-136 77 -4 6 -8 7 -8 2 0 -5 -6 -4 -12 1 -16 13 -124 71 -247 134 -51 27 -100
54 -109 61 -8 7 -17 12 -18 11 -6 -4 -102 43 -120 58 -9 8 -19 12 -21 11 -2
-2 -33 10 -68 27 -166 79 -282 131 -295 131 -5 0 -10 5 -10 12 0 6 -3 9 -6 5
-3 -3 -39 9 -79 28 -41 18 -76 31 -79 27 -3 -3 -6 1 -6 8 0 7 -3 11 -6 7 -4
-3 -19 0 -35 9 -16 8 -29 11 -29 7 0 -5 -4 -3 -8 2 -10 14 -59 35 -81 35 -10
0 -24 7 -31 15 -7 9 -15 13 -18 10 -3 -3 -11 0 -19 6 -7 6 -13 9 -13 5 0 -3
-24 5 -52 17 -50 22 -105 40 -110 35 -2 -1 -14 5 -28 12 -14 8 -32 15 -40 16
-8 2 -23 7 -35 13 -18 9 -93 34 -105 36 -3 0 -9 3 -15 7 -8 5 -62 22 -107 34
-5 1 -9 2 -10 3 -2 2 -14 5 -28 7 -13 2 -27 8 -30 12 -3 4 -18 9 -34 10 -16 1
-34 6 -40 11 -6 5 -30 12 -53 16 -24 4 -45 11 -48 15 -3 5 -12 7 -19 4 -8 -3
-17 -1 -21 5 -3 6 -16 11 -29 11 -12 0 -26 3 -30 7 -3 4 -17 9 -29 11 -30 5
-52 10 -52 12 0 1 -7 3 -50 14 -11 2 -40 10 -65 16 -25 6 -56 14 -70 17 -14 2
-32 7 -40 10 -15 6 -27 9 -70 17 -14 2 -25 5 -25 6 0 1 -13 4 -30 6 -16 3 -43
9 -59 14 -16 6 -40 10 -52 10 -13 0 -24 5 -24 11 0 5 -4 8 -9 5 -5 -3 -33 -1
-62 5 -30 6 -62 12 -71 12 -10 1 -18 4 -18 7 0 4 -10 6 -22 5 -13 -1 -27 0
-33 4 -11 6 -19 8 -80 15 -38 5 -60 9 -122 21 -16 3 -73 13 -128 21 -55 8
-111 17 -125 20 -28 5 -108 15 -160 19 -19 2 -35 4 -35 5 0 1 -46 6 -127 13
-21 2 -41 6 -44 10 -4 4 -13 2 -21 -4 -7 -7 -13 -7 -13 -2 0 5 -26 11 -57 12
-32 1 -71 4 -88 7 -16 2 -75 6 -130 9 -55 4 -136 9 -180 12 -148 10 -885 11
-891 1 -4 -6 -9 -6 -13 1 -4 6 -9 9 -12 7z"/>
</g>
</svg>
